<?xml version="1.0" encoding="utf-8" standalone="yes"?>
<!DOCTYPE svg PUBLIC "-//W3C//DTD SVG 1.1//EN" "http://www.w3.org/Graphics/SVG/1.1/DTD/svg11.dtd">
<svg style="fill:none;stroke:none;fill-rule:evenodd;clip-rule:evenodd;stroke-linecap:round;stroke-linejoin:round;stroke-miterlimit:1.5;" version="1.1" xmlns="http://www.w3.org/2000/svg" xmlns:xlink="http://www.w3.org/1999/xlink" width="840" height="492" viewBox="0 0 840 492"><style class="text-font-style fontImports" data-font-family="Roboto">@import url(https://fonts.googleapis.com/css2?family=Roboto:wght@400;700&amp;amp;display=block);</style><g id="items" style="isolation: isolate"><g id="blend" style="mix-blend-mode: normal"><g id="g-root-cp_0b_g-0b_1um63dv48kb9i-fill" data-item-order="-313607" transform="translate(176, 185)"></g><g id="g-root-cp_0a_g-0a_1lr5k8348k8wf-fill" data-item-order="-313604" transform="translate(213, 178)"><g id="cp_0a_g-0a_1lr5k8348k8wf-fill-merged" stroke="none" fill="#666666" fill-opacity="1"><g><path d="M21 17L10 24 V10L21 17"></path></g></g><g id="cp_0a_g-0a_1lr5k8348k8wf-fill-merged" stroke="none" fill="#666666" fill-opacity="1"><g><path d="M213 17L202 24 V10L213 17"></path></g></g><g id="cp_0a_g-0a_1lr5k8348k8wf-fill-merged" stroke="none" fill="#666666" fill-opacity="1"><g><path d="M405 17L394 24 V10L405 17"></path></g></g></g><g id="g-root-cp_problem_g-problem_1q6z2cj48k8w0-fill" data-item-order="-313594" transform="translate(44, 192)"><g id="cp_problem_g-problem_1q6z2cj48k8w0-fill-merged" stroke="none" fill="#e55753" fill-opacity="1"><g><path d="M166 54L87.278 10L10 54 V138L87.278 182L166 138 V54"></path></g></g></g><g id="g-root-cp_1_g-1_1hbc23n48k9op-fill" data-item-order="-313578" transform="translate(236, 192)"><g id="cp_1_g-1_1hbc23n48k9op-fill-merged" stroke="none" fill="#666666" fill-opacity="1"><g><path d="M166 54L87.278 10L10 54 V138L87.278 182L166 138 V54"></path></g></g></g><g id="g-root-cp_2_g-2_1cvijz748kagy-fill" data-item-order="-313562" transform="translate(428, 192)"><g id="cp_2_g-2_1cvijz748kagy-fill-merged" stroke="none" fill="#666666" fill-opacity="1"><g><path d="M166 54L87.278 10L10 54 V138L87.278 182L166 138 V54"></path></g></g></g><g id="g-root-cp_resolution_g-resolution_1cvijz748kagz-fill" data-item-order="-313546" transform="translate(620, 192)"><g id="cp_resolution_g-resolution_1cvijz748kagz-fill-merged" stroke="none" fill="#3cc583" fill-opacity="1"><g><path d="M166 54L87.278 10L10 54 V138L87.278 182L166 138 V54"></path></g></g></g><g id="g-root-cp_0b_g-0b_1_13zvjqb48kb9o-fill" data-item-order="-313527" transform="translate(176, 371)"></g><g id="g-root-cp_0a_g-0a_1_zkoioz48k8w5-fill" data-item-order="-313524" transform="translate(213, 364)"><g id="cp_0a_g-0a_1_zkoioz48k8w5-fill-merged" stroke="none" fill="#666666" fill-opacity="1"><g><path d="M21 17L10 24 V10L21 17"></path></g></g><g id="cp_0a_g-0a_1_zkoioz48k8w5-fill-merged" stroke="none" fill="#666666" fill-opacity="1"><g><path d="M213 17L202 24 V10L213 17"></path></g></g><g id="cp_0a_g-0a_1_zkoioz48k8w5-fill-merged" stroke="none" fill="#666666" fill-opacity="1"><g><path d="M405 17L394 24 V10L405 17"></path></g></g></g><g id="g-root-tx_kifrerwe_zkoioz48k8w6-fill" data-item-order="0" transform="translate(218, 38)"><g id="tx_kifrerwe_zkoioz48k8w6-fill-merged" stroke="none" fill="#484848" fill-opacity="1"><g><text style="font: bold 25px Roboto, sans-serif; white-space: pre;" transform="translate(202, 28)" font-weight="bold" font-size="25px" font-family="Roboto, sans-serif"><tspan x="-184.47" y="15" dominant-baseline="ideographic">KI für erweitertes Denken nutzen</tspan></text></g></g></g><g id="g-root-tx_schleren_ddl02r48kb9r-fill" data-item-order="0" transform="translate(242, 122)"><g id="tx_schleren_ddl02r48kb9r-fill-merged" stroke="none" fill="#484848" fill-opacity="1"><g><text style="font: 15px Roboto, sans-serif; white-space: pre;" transform="translate(82, 28)" font-size="15px" font-family="Roboto, sans-serif"><tspan x="-64.34" y="0" dominant-baseline="ideographic">Schüler entwickeln </tspan><tspan x="-44.2" y="18" dominant-baseline="ideographic">eigene Ideen</tspan></text></g></g></g><g id="g-root-tx_kisimuli_8ydz1f48k8w8-fill" data-item-order="0" transform="translate(452, 110)"><g id="tx_kisimuli_8ydz1f48k8w8-fill-merged" stroke="none" fill="#484848" fill-opacity="1"><g><text style="font: 15px Roboto, sans-serif; white-space: pre;" transform="translate(64, 40)" font-size="15px" font-family="Roboto, sans-serif"><tspan x="-39.69" y="-9" dominant-baseline="ideographic">KI simuliert </tspan><tspan x="-46.03" y="9" dominant-baseline="ideographic">verschiedene </tspan><tspan x="-44.91" y="27" dominant-baseline="ideographic">Perspektiven</tspan></text></g></g></g><g id="g-root-tx_reproduk_4ikgwz48k9oh-fill" data-item-order="0" transform="translate(50, 254)"><g id="tx_reproduk_4ikgwz48k9oh-fill-merged" stroke="none" fill="#ffffff" fill-opacity="1"><g><text style="font: bold 20px Roboto, sans-serif; white-space: pre;" transform="translate(82, 34)" font-weight="bold" font-size="20px" font-family="Roboto, sans-serif"><tspan x="-67.23" y="0" dominant-baseline="ideographic">Reproduktives </tspan><tspan x="-33.59" y="24" dominant-baseline="ideographic">Lernen</tspan></text></g></g></g><g id="g-root-tx_klassenz_1uo1in748kaa2-fill" data-item-order="0" transform="translate(236, 254)"><g id="tx_klassenz_1uo1in748kaa2-fill-merged" stroke="none" fill="#ffffff" fill-opacity="1"><g><text style="font: bold 20px Roboto, sans-serif; white-space: pre;" transform="translate(88, 34)" font-weight="bold" font-size="20px" font-family="Roboto, sans-serif"><tspan x="-73.7" y="0" dominant-baseline="ideographic">Klassenzimmer-</tspan><tspan x="-28.52" y="24" dominant-baseline="ideographic">Dialog</tspan></text></g></g></g><g id="g-root-tx_kigesttz_1q880ir48kb2b-fill" data-item-order="0" transform="translate(440, 254)"><g id="tx_kigesttz_1q880ir48kb2b-fill-merged" stroke="none" fill="#ffffff" fill-opacity="1"><g><text style="font: bold 20px Roboto, sans-serif; white-space: pre;" transform="translate(76, 34)" font-weight="bold" font-size="20px" font-family="Roboto, sans-serif"><tspan x="-61.87" y="0" dominant-baseline="ideographic">KI-gestützter </tspan><tspan x="-31.01" y="24" dominant-baseline="ideographic">Dialog</tspan></text></g></g></g><g id="g-root-tx_erweiter_1q880ir48kb2c-fill" data-item-order="0" transform="translate(638, 254)"><g id="tx_erweiter_1q880ir48kb2c-fill-merged" stroke="none" fill="#ffffff" fill-opacity="1"><g><text style="font: bold 20px Roboto, sans-serif; white-space: pre;" transform="translate(70, 34)" font-weight="bold" font-size="20px" font-family="Roboto, sans-serif"><tspan x="-53.87" y="0" dominant-baseline="ideographic">Erweitertes </tspan><tspan x="-36.26" y="24" dominant-baseline="ideographic">Denken</tspan></text></g></g></g><g id="g-root-tx_fokusauf_1cxdz8j48k9hh-fill" data-item-order="0" transform="translate(74, 386)"><g id="tx_fokusauf_1cxdz8j48k9hh-fill-merged" stroke="none" fill="#484848" fill-opacity="1"><g><text style="font: 15px Roboto, sans-serif; white-space: pre;" transform="translate(70, 28)" font-size="15px" font-family="Roboto, sans-serif"><tspan x="-44.73" y="0" dominant-baseline="ideographic">Fokus auf die </tspan><tspan x="-53.33" y="18" dominant-baseline="ideographic">richtige Antwort</tspan></text></g></g></g><g id="g-root-tx_fokusauf_141qyzn48kaa6-fill" data-item-order="0" transform="translate(632, 386)"><g id="tx_fokusauf_141qyzn48kaa6-fill-merged" stroke="none" fill="#484848" fill-opacity="1"><g><text style="font: 15px Roboto, sans-serif; white-space: pre;" transform="translate(76, 28)" font-size="15px" font-family="Roboto, sans-serif"><tspan x="-59.42" y="0" dominant-baseline="ideographic">Fokus auf Fragen </tspan><tspan x="-59.28" y="18" dominant-baseline="ideographic">und Perspektiven</tspan></text></g></g></g><g id="g-root-cp_0b_g-0b_1um63dv48kb9i-stroke" data-item-order="-313607" transform="translate(176, 185)"><g id="cp_0b_g-0b_1um63dv48kb9i-stroke" fill="none" stroke-linecap="round" stroke-linejoin="round" stroke-miterlimit="4" stroke="#484848" stroke-width="2" stroke-dasharray="5.0, 7.0" stroke-opacity="1"><g><path d="M 10 10L 47 10M 478 10L 442 10M 431 10L 250 10M 58 10L 239 10"></path></g></g></g><g id="g-root-cp_0a_g-0a_1lr5k8348k8wf-stroke" data-item-order="-313604" transform="translate(213, 178)"><g id="cp_0a_g-0a_1lr5k8348k8wf-stroke" fill="none" stroke-linecap="round" stroke-linejoin="round" stroke-miterlimit="4" stroke="#ffffff" stroke-width="2" stroke-opacity="1"><g><path d="M 21 17L 9.999999 24L 10 10L 21 17Z"></path></g></g><g id="cp_0a_g-0a_1lr5k8348k8wf-stroke" fill="none" stroke-linecap="round" stroke-linejoin="round" stroke-miterlimit="4" stroke="#ffffff" stroke-width="2" stroke-opacity="1"><g><path d="M 213 17L 201.999999 24L 202 10L 213 17Z"></path></g></g><g id="cp_0a_g-0a_1lr5k8348k8wf-stroke" fill="none" stroke-linecap="round" stroke-linejoin="round" stroke-miterlimit="4" stroke="#ffffff" stroke-width="2" stroke-opacity="1"><g><path d="M 405 17L 393.999999 24L 394 10L 405 17Z"></path></g></g></g><g id="g-root-cp_problem_g-problem_1q6z2cj48k8w0-stroke" data-item-order="-313594" transform="translate(44, 192)"><g id="cp_problem_g-problem_1q6z2cj48k8w0-stroke" fill="none" stroke-linecap="round" stroke-linejoin="round" stroke-miterlimit="4" stroke="#ffffff" stroke-width="2" stroke-opacity="1"><g><path d="M 166 138L 87.2778 182L 10 138M 10 54L 87.2778 10L 166 54M 10 138L 10 54M 166 54L 166 138"></path></g></g></g><g id="g-root-cp_1_g-1_1hbc23n48k9op-stroke" data-item-order="-313578" transform="translate(236, 192)"><g id="cp_1_g-1_1hbc23n48k9op-stroke" fill="none" stroke-linecap="round" stroke-linejoin="round" stroke-miterlimit="4" stroke="#ffffff" stroke-width="2" stroke-opacity="1"><g><path d="M 166 138L 87.2778 182L 10 138M 10 54L 87.2778 10L 166 54M 10 138L 10 54M 166 54L 166 138"></path></g></g></g><g id="g-root-cp_2_g-2_1cvijz748kagy-stroke" data-item-order="-313562" transform="translate(428, 192)"><g id="cp_2_g-2_1cvijz748kagy-stroke" fill="none" stroke-linecap="round" stroke-linejoin="round" stroke-miterlimit="4" stroke="#ffffff" stroke-width="2" stroke-opacity="1"><g><path d="M 166 138L 87.2778 182L 10 138M 10 54L 87.2778 10L 166 54M 10 138L 10 54M 166 54L 166 138"></path></g></g></g><g id="g-root-cp_resolution_g-resolution_1cvijz748kagz-stroke" data-item-order="-313546" transform="translate(620, 192)"><g id="cp_resolution_g-resolution_1cvijz748kagz-stroke" fill="none" stroke-linecap="round" stroke-linejoin="round" stroke-miterlimit="4" stroke="#ffffff" stroke-width="2" stroke-opacity="1"><g><path d="M 166 138L 87.2778 182L 10 138M 10 54L 87.2778 10L 166 54M 10 138L 10 54M 166 54L 166 138"></path></g></g></g><g id="g-root-cp_0b_g-0b_1_13zvjqb48kb9o-stroke" data-item-order="-313527" transform="translate(176, 371)"><g id="cp_0b_g-0b_1_13zvjqb48kb9o-stroke" fill="none" stroke-linecap="round" stroke-linejoin="round" stroke-miterlimit="4" stroke="#484848" stroke-width="2" stroke-dasharray="5.0, 7.0" stroke-opacity="1"><g><path d="M 10 10L 47 10M 478 10L 442 10M 431 10L 250 10M 58 10L 239 10"></path></g></g></g><g id="g-root-cp_0a_g-0a_1_zkoioz48k8w5-stroke" data-item-order="-313524" transform="translate(213, 364)"><g id="cp_0a_g-0a_1_zkoioz48k8w5-stroke" fill="none" stroke-linecap="round" stroke-linejoin="round" stroke-miterlimit="4" stroke="#ffffff" stroke-width="2" stroke-opacity="1"><g><path d="M 21 17L 9.999999 24L 10 10L 21 17Z"></path></g></g><g id="cp_0a_g-0a_1_zkoioz48k8w5-stroke" fill="none" stroke-linecap="round" stroke-linejoin="round" stroke-miterlimit="4" stroke="#ffffff" stroke-width="2" stroke-opacity="1"><g><path d="M 213 17L 201.999999 24L 202 10L 213 17Z"></path></g></g><g id="cp_0a_g-0a_1_zkoioz48k8w5-stroke" fill="none" stroke-linecap="round" stroke-linejoin="round" stroke-miterlimit="4" stroke="#ffffff" stroke-width="2" stroke-opacity="1"><g><path d="M 405 17L 393.999999 24L 394 10L 405 17Z"></path></g></g></g><g id="g-root-tx_kifrerwe_zkoioz48k8w6-stroke" data-item-order="0" transform="translate(218, 38)"></g><g id="g-root-tx_schleren_ddl02r48kb9r-stroke" data-item-order="0" transform="translate(242, 122)"></g><g id="g-root-tx_kisimuli_8ydz1f48k8w8-stroke" data-item-order="0" transform="translate(452, 110)"></g><g id="g-root-tx_reproduk_4ikgwz48k9oh-stroke" data-item-order="0" transform="translate(50, 254)"></g><g id="g-root-tx_klassenz_1uo1in748kaa2-stroke" data-item-order="0" transform="translate(236, 254)"></g><g id="g-root-tx_kigesttz_1q880ir48kb2b-stroke" data-item-order="0" transform="translate(440, 254)"></g><g id="g-root-tx_erweiter_1q880ir48kb2c-stroke" data-item-order="0" transform="translate(638, 254)"></g><g id="g-root-tx_fokusauf_1cxdz8j48k9hh-stroke" data-item-order="0" transform="translate(74, 386)"></g><g id="g-root-tx_fokusauf_141qyzn48kaa6-stroke" data-item-order="0" transform="translate(632, 386)"></g></g></g></svg>