<?xml version="1.0" encoding="utf-8" standalone="yes"?>
<!DOCTYPE svg PUBLIC "-//W3C//DTD SVG 1.1//EN" "http://www.w3.org/Graphics/SVG/1.1/DTD/svg11.dtd">
<svg style="fill:none;stroke:none;fill-rule:evenodd;clip-rule:evenodd;stroke-linecap:round;stroke-linejoin:round;stroke-miterlimit:1.5;" version="1.1" xmlns="http://www.w3.org/2000/svg" xmlns:xlink="http://www.w3.org/1999/xlink" width="792" height="720" viewBox="0 0 792 720"><style class="text-font-style fontImports" data-font-family="Roboto">@import url(https://fonts.googleapis.com/css2?family=Roboto:wght@400;700&amp;amp;display=block);</style><g id="items" style="isolation: isolate"><g id="blend" style="mix-blend-mode: normal"><g id="g-root-cp_1_g-1_142dbxd79ywwb-fill" data-item-order="-464245" transform="translate(356, 170)"></g><g id="g-root-cp_2_g-2_zmjtsx79yxok-fill" data-item-order="-464241" transform="translate(449.52001953125, 210.947021484375)"></g><g id="g-root-cp_3_g-3_zmjtsx79yxol-fill" data-item-order="-464237" transform="translate(484.47998046875, 314.591064453125)"></g><g id="g-root-cp_4_g-4_zmjtsx79yxom-fill" data-item-order="-464233" transform="translate(472.5999755859375, 421.489990234375)"></g><g id="g-root-cp_5_g-5_qqwtk179yyhb-fill" data-item-order="-464229" transform="translate(414.08001708984375, 468.9599609375)"></g><g id="g-root-cp_6_g-6_v6qboh79yygw-fill" data-item-order="-464225" transform="translate(296.1360168457031, 468.9599609375)"></g><g id="g-root-cp_7_g-7_v6qboh79yygx-fill" data-item-order="-464221" transform="translate(204.45401000976562, 421.5)"></g><g id="g-root-cp_8_g-8_mb3bfl79yz9m-fill" data-item-order="-464217" transform="translate(183.65802001953125, 314.60205078125)"></g><g id="g-root-cp_9_g-9_mb3bfl79yz9n-fill" data-item-order="-464213" transform="translate(243.50494384765625, 210.93798828125)"></g><g id="g-root-cp_0_g-0_hvwae979yww4-fill" data-item-order="-464209" transform="translate(314, 302.989990234375)"></g><g id="g-root-tx_produzie_1hzmp79mb63-fill" data-item-order="0" transform="translate(543, 188)"><g id="tx_produzie_1hzmp79mb63-fill-merged" stroke="none" fill="#484848" fill-opacity="1"><g><text style="font-style: normal; font-variant-caps: normal; font-weight: normal; font-width: normal; font-size: 10px; line-height: normal; font-family: Roboto, sans-serif; font-size-adjust: none; font-kerning: auto; font-variant-alternates: normal; font-variant-ligatures: normal; font-variant-numeric: normal; font-variant-east-asian: normal; font-variant-position: normal; font-variant-emoji: normal; font-feature-settings: normal; font-optical-sizing: auto; font-variation-settings: normal; white-space: pre;"><tspan x="12" y="21" dominant-baseline="ideographic">Produziert visuelle und </tspan><tspan x="12" y="33" dominant-baseline="ideographic">auditive </tspan><tspan x="12" y="45" dominant-baseline="ideographic">Lernressourcen</tspan></text></g></g></g><g id="g-root-ic_pro_mbppcx7juars-fill" data-item-order="0" transform="translate(256, 224)"></g><g id="g-root-ic_brus_1ha3s8179mccs-fill" data-item-order="0" transform="translate(480, 223)"></g><g id="g-root-tx_robotere_95960179uqyw-fill" data-item-order="0" transform="translate(56, 290)"><g id="tx_robotere_95960179uqyw-fill-merged" stroke="none" fill="#e55753" fill-opacity="1"><g><text style="font-style: normal; font-variant-caps: normal; font-weight: normal; font-width: normal; font-size: 15px; line-height: normal; font-family: Roboto, sans-serif; font-size-adjust: none; font-kerning: auto; font-variant-alternates: normal; font-variant-ligatures: normal; font-variant-numeric: normal; font-variant-east-asian: normal; font-variant-position: normal; font-variant-emoji: normal; font-feature-settings: normal; font-optical-sizing: auto; font-variation-settings: normal; white-space: pre;"><tspan x="15" y="31" dominant-baseline="ideographic">Robotereinsatz</tspan></text></g></g></g><g id="g-root-tx_intellig_13zvfkx7a4jd4-fill" data-item-order="0" transform="translate(608, 278)"><g id="tx_intellig_13zvfkx7a4jd4-fill-merged" stroke="none" fill="#92bd39" fill-opacity="1"><g><text style="font-style: normal; font-variant-caps: normal; font-weight: normal; font-width: normal; font-size: 15px; line-height: normal; font-family: Roboto, sans-serif; font-size-adjust: none; font-kerning: auto; font-variant-alternates: normal; font-variant-ligatures: normal; font-variant-numeric: normal; font-variant-east-asian: normal; font-variant-position: normal; font-variant-emoji: normal; font-feature-settings: normal; font-optical-sizing: auto; font-variation-settings: normal; white-space: pre;"><tspan x="12" y="28" dominant-baseline="ideographic">Intelligentes </tspan><tspan x="12" y="46" dominant-baseline="ideographic">Tutoring</tspan></text></g></g></g><g id="g-root-ic_1_13zvlwh79nqbk-fill" data-item-order="0" transform="translate(368, 182)"></g><g id="g-root-tx_schaffti_144vbfl7a0cn7-fill" data-item-order="0" transform="translate(135, 188)"><g id="tx_schaffti_144vbfl7a0cn7-fill-merged" stroke="none" fill="#484848" fill-opacity="1"><g><text style="font-style: normal; font-variant-caps: normal; font-weight: normal; font-width: normal; font-size: 10px; line-height: normal; font-family: Roboto, sans-serif; font-size-adjust: none; font-kerning: auto; font-variant-alternates: normal; font-variant-ligatures: normal; font-variant-numeric: normal; font-variant-east-asian: normal; font-variant-position: normal; font-variant-emoji: normal; font-feature-settings: normal; font-optical-sizing: auto; font-variation-settings: normal; white-space: pre;"><tspan x="22" y="21" dominant-baseline="ideographic">Schafft immersive </tspan><tspan x="68" y="33" dominant-baseline="ideographic">virtuelle </tspan><tspan x="26" y="45" dominant-baseline="ideographic">Lernumgebungen</tspan></text></g></g></g><g id="g-root-tx_integrie_vbq7j579w54x-fill" data-item-order="0" transform="translate(68, 320)"><g id="tx_integrie_vbq7j579w54x-fill-merged" stroke="none" fill="#484848" fill-opacity="1"><g><text style="font-style: normal; font-variant-caps: normal; font-weight: normal; font-width: normal; font-size: 10px; line-height: normal; font-family: Roboto, sans-serif; font-size-adjust: none; font-kerning: auto; font-variant-alternates: normal; font-variant-ligatures: normal; font-variant-numeric: normal; font-variant-east-asian: normal; font-variant-position: normal; font-variant-emoji: normal; font-feature-settings: normal; font-optical-sizing: auto; font-variation-settings: normal; white-space: pre;"><tspan x="15" y="21" dominant-baseline="ideographic">Integriert Roboter in </tspan><tspan x="87" y="33" dominant-baseline="ideographic">den </tspan><tspan x="15" y="45" dominant-baseline="ideographic">Informatikunterricht</tspan></text></g></g></g><g id="g-root-ic_robo_1czvl417jsxlb-fill" data-item-order="0" transform="translate(197, 326)"></g><g id="g-root-tx_material_3dew179kwsi-fill" data-item-order="0" transform="translate(543, 158)"><g id="tx_material_3dew179kwsi-fill-merged" stroke="none" fill="#3cc583" fill-opacity="1"><g><text style="font-style: normal; font-variant-caps: normal; font-weight: normal; font-width: normal; font-size: 15px; line-height: normal; font-family: Roboto, sans-serif; font-size-adjust: none; font-kerning: auto; font-variant-alternates: normal; font-variant-ligatures: normal; font-variant-numeric: normal; font-variant-east-asian: normal; font-variant-position: normal; font-variant-emoji: normal; font-feature-settings: normal; font-optical-sizing: auto; font-variation-settings: normal; white-space: pre;"><tspan x="12" y="31" dominant-baseline="ideographic">Materialgenerierung</tspan></text></g></g></g><g id="g-root-tx_bietetpe_4g2gf57a5zb5-fill" data-item-order="0" transform="translate(608, 320)"><g id="tx_bietetpe_4g2gf57a5zb5-fill-merged" stroke="none" fill="#484848" fill-opacity="1"><g><text style="font-style: normal; font-variant-caps: normal; font-weight: normal; font-width: normal; font-size: 10px; line-height: normal; font-family: Roboto, sans-serif; font-size-adjust: none; font-kerning: auto; font-variant-alternates: normal; font-variant-ligatures: normal; font-variant-numeric: normal; font-variant-east-asian: normal; font-variant-position: normal; font-variant-emoji: normal; font-feature-settings: normal; font-optical-sizing: auto; font-variation-settings: normal; white-space: pre;"><tspan x="12" y="21" dominant-baseline="ideographic">Bietet personalisiertes </tspan><tspan x="12" y="33" dominant-baseline="ideographic">Feedback und </tspan><tspan x="12" y="45" dominant-baseline="ideographic">Lernpfade</tspan></text></g></g></g><g id="g-root-ic_2_mcyqox7juaz2-fill" data-item-order="0" transform="translate(350, 337.9959716796875)"></g><g id="g-root-ic_4_1ums0ip7jkgzq-fill" data-item-order="0" transform="translate(539, 326)"></g><g id="g-root-tx_sprachsy_24gpt79ry12-fill" data-item-order="0" transform="translate(80, 428)"><g id="tx_sprachsy_24gpt79ry12-fill-merged" stroke="none" fill="#de58a9" fill-opacity="1"><g><text style="font-style: normal; font-variant-caps: normal; font-weight: normal; font-width: normal; font-size: 15px; line-height: normal; font-family: Roboto, sans-serif; font-size-adjust: none; font-kerning: auto; font-variant-alternates: normal; font-variant-ligatures: normal; font-variant-numeric: normal; font-variant-east-asian: normal; font-variant-position: normal; font-variant-emoji: normal; font-feature-settings: normal; font-optical-sizing: auto; font-variation-settings: normal; white-space: pre;"><tspan x="13" y="31" dominant-baseline="ideographic">Sprachsysteme</tspan></text></g></g></g><g id="g-root-tx_kigesttz_1lsehep79yznm-fill" data-item-order="0" transform="translate(123, 158)"><g id="tx_kigesttz_1lsehep79yznm-fill-merged" stroke="none" fill="#ba5de5" fill-opacity="1"><g><text style="font-style: normal; font-variant-caps: normal; font-weight: normal; font-width: normal; font-size: 15px; line-height: normal; font-family: Roboto, sans-serif; font-size-adjust: none; font-kerning: auto; font-variant-alternates: normal; font-variant-ligatures: normal; font-variant-numeric: normal; font-variant-east-asian: normal; font-variant-position: normal; font-variant-emoji: normal; font-feature-settings: normal; font-optical-sizing: auto; font-variation-settings: normal; white-space: pre;"><tspan x="13" y="31" dominant-baseline="ideographic">KI-gestützte VR</tspan></text></g></g></g><g id="g-root-tx_erstellt_1d1r6ox7a1slr-fill" data-item-order="0" transform="translate(332, 116)"><g id="tx_erstellt_1d1r6ox7a1slr-fill-merged" stroke="none" fill="#484848" fill-opacity="1"><g><text style="font-style: normal; font-variant-caps: normal; font-weight: normal; font-width: normal; font-size: 10px; line-height: normal; font-family: Roboto, sans-serif; font-size-adjust: none; font-kerning: auto; font-variant-alternates: normal; font-variant-ligatures: normal; font-variant-numeric: normal; font-variant-east-asian: normal; font-variant-position: normal; font-variant-emoji: normal; font-feature-settings: normal; font-optical-sizing: auto; font-variation-settings: normal; white-space: pre;"><tspan x="15.17" y="21" dominant-baseline="ideographic">Erstellt und übersetzt </tspan><tspan x="43.17" y="33" dominant-baseline="ideographic">Texte für </tspan><tspan x="27.17" y="45" dominant-baseline="ideographic">Bildungszwecke</tspan></text></g></g></g><g id="g-root-tx_lernanal_1cz9di979noqs-fill" data-item-order="0" transform="translate(590, 428)"><g id="tx_lernanal_1cz9di979noqs-fill-merged" stroke="none" fill="#de8431" fill-opacity="1"><g><text style="font-style: normal; font-variant-caps: normal; font-weight: normal; font-width: normal; font-size: 15px; line-height: normal; font-family: Roboto, sans-serif; font-size-adjust: none; font-kerning: auto; font-variant-alternates: normal; font-variant-ligatures: normal; font-variant-numeric: normal; font-variant-east-asian: normal; font-variant-position: normal; font-variant-emoji: normal; font-feature-settings: normal; font-optical-sizing: auto; font-variation-settings: normal; white-space: pre;"><tspan x="12" y="31" dominant-baseline="ideographic">Lernanalyse</tspan></text></g></g></g><g id="g-root-ic_1_18kok2p7jor28-fill" data-item-order="0" transform="translate(217, 443)"></g><g id="g-root-tx_generier_1d3080x7a366d-fill" data-item-order="0" transform="translate(458, 608)"><g id="tx_generier_1d3080x7a366d-fill-merged" stroke="none" fill="#484848" fill-opacity="1"><g><text style="font-style: normal; font-variant-caps: normal; font-weight: normal; font-width: normal; font-size: 10px; line-height: normal; font-family: Roboto, sans-serif; font-size-adjust: none; font-kerning: auto; font-variant-alternates: normal; font-variant-ligatures: normal; font-variant-numeric: normal; font-variant-east-asian: normal; font-variant-position: normal; font-variant-emoji: normal; font-feature-settings: normal; font-optical-sizing: auto; font-variation-settings: normal; white-space: pre;"><tspan x="12" y="21" dominant-baseline="ideographic">Generiert und bewertet </tspan><tspan x="12" y="33" dominant-baseline="ideographic">Prüfungen</tspan></text></g></g></g><g id="g-root-tx_unterstt_1uqje0179tcef-fill" data-item-order="0" transform="translate(80, 458)"><g id="tx_unterstt_1uqje0179tcef-fill-merged" stroke="none" fill="#484848" fill-opacity="1"><g><text style="font-style: normal; font-variant-caps: normal; font-weight: normal; font-width: normal; font-size: 10px; line-height: normal; font-family: Roboto, sans-serif; font-size-adjust: none; font-kerning: auto; font-variant-alternates: normal; font-variant-ligatures: normal; font-variant-numeric: normal; font-variant-east-asian: normal; font-variant-position: normal; font-variant-emoji: normal; font-feature-settings: normal; font-optical-sizing: auto; font-variation-settings: normal; white-space: pre;"><tspan x="22" y="21" dominant-baseline="ideographic">Unterstützt Lernende </tspan><tspan x="39" y="33" dominant-baseline="ideographic">mit sensorischen </tspan><tspan x="39" y="45" dominant-baseline="ideographic">Einschränkungen</tspan></text></g></g></g><g id="g-root-tx_textgene_1d2dns17a0c26-fill" data-item-order="0" transform="translate(326, 86)"><g id="tx_textgene_1d2dns17a0c26-fill-merged" stroke="none" fill="#1eabda" fill-opacity="1"><g><text style="font-style: normal; font-variant-caps: normal; font-weight: normal; font-width: normal; font-size: 15px; line-height: normal; font-family: Roboto, sans-serif; font-size-adjust: none; font-kerning: auto; font-variant-alternates: normal; font-variant-ligatures: normal; font-variant-numeric: normal; font-variant-east-asian: normal; font-variant-position: normal; font-variant-emoji: normal; font-feature-settings: normal; font-optical-sizing: auto; font-variation-settings: normal; white-space: pre;"><tspan x="16.03" y="31" dominant-baseline="ideographic">Textgenerierung</tspan></text></g></g></g><g id="g-root-tx_technolo_909a5d79yxot-fill" data-item-order="0" transform="translate(182, 38)"><g id="tx_technolo_909a5d79yxot-fill-merged" stroke="none" fill="#484848" fill-opacity="1"><g><text style="font-style: normal; font-variant-caps: normal; font-weight: bold; font-width: normal; font-size: 20px; line-height: normal; font-family: Roboto, sans-serif; font-size-adjust: none; font-kerning: auto; font-variant-alternates: normal; font-variant-ligatures: normal; font-variant-numeric: normal; font-variant-east-asian: normal; font-variant-position: normal; font-variant-emoji: normal; font-feature-settings: normal; font-optical-sizing: auto; font-variation-settings: normal; white-space: pre;"><tspan x="17.12" y="34" dominant-baseline="ideographic">Technologien zur Verbesserung der Bildung</tspan></text></g></g></g><g id="g-root-tx_analysie_mfgq7579p5ot-fill" data-item-order="0" transform="translate(590, 458)"><g id="tx_analysie_mfgq7579p5ot-fill-merged" stroke="none" fill="#484848" fill-opacity="1"><g><text style="font-style: normal; font-variant-caps: normal; font-weight: normal; font-width: normal; font-size: 10px; line-height: normal; font-family: Roboto, sans-serif; font-size-adjust: none; font-kerning: auto; font-variant-alternates: normal; font-variant-ligatures: normal; font-variant-numeric: normal; font-variant-east-asian: normal; font-variant-position: normal; font-variant-emoji: normal; font-feature-settings: normal; font-optical-sizing: auto; font-variation-settings: normal; white-space: pre;"><tspan x="12" y="21" dominant-baseline="ideographic">Analysiert </tspan><tspan x="12" y="33" dominant-baseline="ideographic">Lernverhalten und </tspan><tspan x="12" y="45" dominant-baseline="ideographic">Leistung</tspan></text></g></g></g><g id="g-root-ic_1_1czvhy97jucxy-fill" data-item-order="0" transform="translate(308, 521)"></g><g id="g-root-ic_edit_90veld7jyih8-fill" data-item-order="0" transform="translate(428, 519)"></g><g id="g-root-tx_unterric_8ydy1t7a603y-fill" data-item-order="0" transform="translate(146, 578)"><g id="tx_unterric_8ydy1t7a603y-fill-merged" stroke="none" fill="#7f64ea" fill-opacity="1"><g><text style="font-style: normal; font-variant-caps: normal; font-weight: normal; font-width: normal; font-size: 15px; line-height: normal; font-family: Roboto, sans-serif; font-size-adjust: none; font-kerning: auto; font-variant-alternates: normal; font-variant-ligatures: normal; font-variant-numeric: normal; font-variant-east-asian: normal; font-variant-position: normal; font-variant-emoji: normal; font-feature-settings: normal; font-optical-sizing: auto; font-variation-settings: normal; white-space: pre;"><tspan x="19" y="31" dominant-baseline="ideographic">Unterrichtsorganisation</tspan></text></g></g></g><g id="g-root-tx_prfungsu_mgpodd7a1ssk-fill" data-item-order="0" transform="translate(458, 578)"><g id="tx_prfungsu_mgpodd7a1ssk-fill-merged" stroke="none" fill="#e0cb15" fill-opacity="1"><g><text style="font-style: normal; font-variant-caps: normal; font-weight: normal; font-width: normal; font-size: 15px; line-height: normal; font-family: Roboto, sans-serif; font-size-adjust: none; font-kerning: auto; font-variant-alternates: normal; font-variant-ligatures: normal; font-variant-numeric: normal; font-variant-east-asian: normal; font-variant-position: normal; font-variant-emoji: normal; font-feature-settings: normal; font-optical-sizing: auto; font-variation-settings: normal; white-space: pre;"><tspan x="12" y="31" dominant-baseline="ideographic">Prüfungsunterstützung</tspan></text></g></g></g><g id="g-root-tx_verwalte_4nkbs179kwlj-fill" data-item-order="0" transform="translate(206, 608)"><g id="tx_verwalte_4nkbs179kwlj-fill-merged" stroke="none" fill="#484848" fill-opacity="1"><g><text style="font-style: normal; font-variant-caps: normal; font-weight: normal; font-width: normal; font-size: 10px; line-height: normal; font-family: Roboto, sans-serif; font-size-adjust: none; font-kerning: auto; font-variant-alternates: normal; font-variant-ligatures: normal; font-variant-numeric: normal; font-variant-east-asian: normal; font-variant-position: normal; font-variant-emoji: normal; font-feature-settings: normal; font-optical-sizing: auto; font-variation-settings: normal; white-space: pre;"><tspan x="19" y="21" dominant-baseline="ideographic">Verwaltet Unterrichts- </tspan><tspan x="22" y="33" dominant-baseline="ideographic">und Schulressourcen</tspan></text></g></g></g><g id="g-root-ic_pie_1448bdt7k2pzc-fill" data-item-order="0" transform="translate(519, 443)"></g><g id="g-root-cp_1_g-1_142dbxd79ywwb-stroke" data-item-order="-464245" transform="translate(356, 170)"><g id="cp_1_g-1_142dbxd79ywwb-stroke" fill="none" stroke-linecap="round" stroke-linejoin="round" stroke-miterlimit="4" stroke="#1eabda" stroke-width="2" stroke-opacity="1"><g><path d="M 29.26 103.37L 40 115L 50.74 103.37L 44.76 103.37L 44.76 69.57C 59.06 67.29 70 54.91 70 39.97C 70 23.42 56.57 10 40 10C 23.43 10 10 23.42 10 39.97C 10 54.88 20.9 67.25 35.18 69.56L 35.18 103.37L 29.26 103.37Z"></path></g></g></g><g id="g-root-cp_2_g-2_zmjtsx79yxok-stroke" data-item-order="-464241" transform="translate(449.52001953125, 210.947021484375)"><g id="cp_2_g-2_zmjtsx79yxok-stroke" fill="none" stroke-linecap="round" stroke-linejoin="round" stroke-miterlimit="4" stroke="#3cc583" stroke-width="2" stroke-opacity="1"><g><path d="M 10 81.6327L 10.76 97.4427L 26.46 95.4427L 21.88 91.6027L 43.61 65.7127C 56.03 73.1627 72.37 70.7027 81.97 59.2627C 92.61 46.5827 90.95 27.6727 78.25 17.0227C 65.56 6.3727 46.64 8.0227 36 20.7027C 26.41 32.1227 26.81 48.6127 36.27 59.5527L 14.54 85.4527L 10 81.6427L 10 81.6327Z"></path></g></g></g><g id="g-root-cp_3_g-3_zmjtsx79yxol-stroke" data-item-order="-464237" transform="translate(484.47998046875, 314.591064453125)"><g id="cp_3_g-3_zmjtsx79yxol-stroke" fill="none" stroke-linecap="round" stroke-linejoin="round" stroke-miterlimit="4" stroke="#92bd39" stroke-width="2" stroke-opacity="1"><g><path d="M 19.58 40.4389L 10 53.0389L 23.32 61.5989L 22.28 55.7089L 55.57 49.8389C 60.3 63.5289 74.39 72.1489 89.1 69.5489C 105.4 66.6789 116.29 51.1189 113.41 34.7989C 110.53 18.4789 94.99 7.5889 78.68 10.4589C 63.99 13.0489 53.7 25.9289 53.91 40.3889L 20.61 46.2589L 19.58 40.4289L 19.58 40.4389Z"></path></g></g></g><g id="g-root-cp_4_g-4_zmjtsx79yxom-stroke" data-item-order="-464233" transform="translate(472.5999755859375, 421.489990234375)"><g id="cp_4_g-4_zmjtsx79yxom-stroke" fill="none" stroke-linecap="round" stroke-linejoin="round" stroke-miterlimit="4" stroke="#de8431" stroke-width="2" stroke-opacity="1"><g><path d="M 25.44 10.01L 10 13.5L 14.7 28.62L 17.69 23.44L 46.96 40.34C 41.78 53.87 47.04 69.53 59.97 76.99C 74.31 85.27 92.64 80.34 100.93 66C 109.21 51.65 104.31 33.31 89.97 25.03C 77.05 17.57 60.89 20.83 51.76 32.04L 22.48 15.13L 25.44 10L 25.44 10.01Z"></path></g></g></g><g id="g-root-cp_5_g-5_qqwtk179yyhb-stroke" data-item-order="-464229" transform="translate(414.08001708984375, 468.9599609375)"><g id="cp_5_g-5_qqwtk179yyhb-stroke" fill="none" stroke-linecap="round" stroke-linejoin="round" stroke-miterlimit="4" stroke="#e0cb15" stroke-width="2" stroke-opacity="1"><g><path d="M 30.19 17.25L 16.12 10L 10 24.6L 15.62 22.55L 27.18 54.31C 14.52 61.35 8.48 76.72 13.59 90.75C 19.25 106.31 36.46 114.32 52.03 108.65C 67.6 102.98 75.63 85.78 69.97 70.22C 64.87 56.21 50.4 48.31 36.19 51.03L 24.63 19.26L 30.19 17.23L 30.19 17.25Z"></path></g></g></g><g id="g-root-cp_6_g-6_v6qboh79yygw-stroke" data-item-order="-464225" transform="translate(296.1360168457031, 468.9599609375)"><g id="cp_6_g-6_v6qboh79yygw-stroke" fill="none" stroke-linecap="round" stroke-linejoin="round" stroke-miterlimit="4" stroke="#7f64ea" stroke-width="2" stroke-opacity="1"><g><path d="M 71.783569 24.6L 65.663469 10L 51.593569 17.25L 57.213569 19.3L 45.653569 51.06C 31.433569 48.31 16.923569 56.21 11.813569 70.24C 6.153569 85.8 14.183569 103 29.753569 108.67C 45.323569 114.34 62.533469 106.32 68.193469 90.77C 73.293469 76.76 67.283569 61.4 54.653569 54.36L 66.213569 22.59L 71.773569 24.62L 71.783569 24.6Z"></path></g></g></g><g id="g-root-cp_7_g-7_v6qboh79yygx-stroke" data-item-order="-464221" transform="translate(204.45401000976562, 421.5)"><g id="cp_7_g-7_v6qboh79yygx-stroke" fill="none" stroke-linecap="round" stroke-linejoin="round" stroke-miterlimit="4" stroke="#de58a9" stroke-width="2" stroke-opacity="1"><g><path d="M 100.2557 28.61L 104.9557 13.49L 89.5157 10L 92.5057 15.18L 63.2357 32.08C 54.1057 20.83 37.9157 17.56 24.9857 25.02C 10.6457 33.3 5.7457 51.64 14.0257 65.99C 22.3057 80.34 40.6457 85.26 54.9857 76.98C 67.9057 69.52 73.1657 53.9 68.0257 40.38L 97.3057 23.47L 100.2657 28.6L 100.2557 28.61Z"></path></g></g></g><g id="g-root-cp_8_g-8_mb3bfl79yz9m-stroke" data-item-order="-464217" transform="translate(183.65802001953125, 314.60205078125)"><g id="cp_8_g-8_mb3bfl79yz9m-stroke" fill="none" stroke-linecap="round" stroke-linejoin="round" stroke-miterlimit="4" stroke="#e55753" stroke-width="2" stroke-opacity="1"><g><path d="M 100.5518 61.5889L 113.8718 53.0289L 104.2918 40.4289L 103.2518 46.3189L 69.9618 40.4489C 70.2018 25.9689 59.9018 13.0489 45.1918 10.4589C 28.8918 7.5889 13.3418 18.4789 10.4618 34.7989C 7.5818 51.1189 18.4718 66.6689 34.7718 69.5489C 49.4618 72.1389 63.5318 63.5489 68.2818 49.8889L 101.5818 55.7589L 100.5518 61.5889Z"></path></g></g></g><g id="g-root-cp_9_g-9_mb3bfl79yz9n-stroke" data-item-order="-464213" transform="translate(243.50494384765625, 210.93798828125)"><g id="cp_9_g-9_mb3bfl79yz9n-stroke" fill="none" stroke-linecap="round" stroke-linejoin="round" stroke-miterlimit="4" stroke="#ba5de5" stroke-width="2" stroke-opacity="1"><g><path d="M 72.515261 95.4527L 88.215361 97.4527L 88.975361 81.6427L 84.395261 85.4827L 62.665361 59.5927C 72.155361 48.6527 72.575361 32.1427 62.975361 20.7027C 52.335361 8.0227 33.415261 6.3727 20.725261 17.0227C 8.035261 27.6727 6.365261 46.5827 17.005261 59.2627C 26.595261 70.6827 42.895361 73.1527 55.315361 65.7427L 77.045261 91.6427L 72.505361 95.4527L 72.515261 95.4527Z"></path></g></g></g><g id="g-root-cp_0_g-0_hvwae979yww4-stroke" data-item-order="-464209" transform="translate(314, 302.989990234375)"><g id="cp_0_g-0_hvwae979yww4-stroke" fill="none" stroke-linecap="round" stroke-linejoin="round" stroke-miterlimit="4" stroke="#484848" stroke-width="2" stroke-opacity="1"><g><path d="M 154 82C 154 42.24 121.76 10 82 10C 42.24 10 10 42.24 10 82C 10 121.76 42.23 154 82 154C 121.77 154 154 121.77 154 82Z"></path></g></g></g><g id="g-root-tx_produzie_1hzmp79mb63-stroke" data-item-order="0" transform="translate(543, 188)"></g><g id="g-root-ic_pro_mbppcx7juars-stroke" data-item-order="0" transform="translate(256, 224)"><g id="ic_pro_mbppcx7juars-stroke" fill="none" stroke-linecap="round" stroke-linejoin="round" stroke-miterlimit="4" stroke="#ba5de5" stroke-width="2" stroke-opacity="1"><g><path d="M 11.265442 31.533699C 11.265442 27.311649 14.46064 23.77459 18.660955 23.346865L 21.555685 23.052099C 25.84075 22.615749 30.15925 22.615749 34.444298 23.052099L 37.334801 23.34643C 41.537498 23.774395 44.7346 27.313601 44.7346 31.53805C 44.7346 34.787651 42.823299 37.733349 39.855698 39.0574L 38.5042 39.6604C 35.422302 41.035599 31.794399 40.112202 29.737598 37.436649C 28.862801 36.298748 27.143801 36.298599 26.273199 37.439651C 24.231113 40.115948 20.618425 41.039501 17.542465 39.671799L 16.151035 39.053051C 13.18 37.73185 11.265442 34.785252 11.265442 31.533699ZM 14.24104 24.972595C 16.534195 17.372725 22.64929 13.994995 28 13.994995C 33.350651 13.994995 39.465851 17.372725 41.7589 24.972595M 18.157 33.535C 18.157 35.002144 19.346355 36.191502 20.813499 36.191502C 22.280645 36.191502 23.470001 35.002144 23.470001 33.535C 23.470001 32.067856 22.280645 30.878502 20.813499 30.878502C 19.346355 30.878502 18.157 32.067856 18.157 33.535M 32.529999 33.535C 32.529999 35.002144 33.719357 36.191502 35.186501 36.191502C 36.653645 36.191502 37.843002 35.002144 37.843002 33.535C 37.843002 32.067856 36.653645 30.878502 35.186501 30.878502C 33.719357 30.878502 32.529999 32.067856 32.529999 33.535M 10 10M 28 30.878651L 28 31.2229"></path></g></g></g><g id="g-root-ic_brus_1ha3s8179mccs-stroke" data-item-order="0" transform="translate(480, 223)"><g id="ic_brus_1ha3s8179mccs-stroke" fill="none" stroke-linecap="round" stroke-linejoin="round" stroke-miterlimit="4" stroke="#3cc583" stroke-width="2" stroke-opacity="1"><g><path d="M 28.394499 15.25C 28.601608 15.25 28.769499 15.417893 28.769499 15.625C 28.769499 15.832107 28.601608 16 28.394499 16C 28.187393 16 28.019499 15.832107 28.019499 15.625C 28.019499 15.417893 28.187393 15.25 28.394499 15.25M 39.644501 25.75L 31.394499 25.75L 32.4445 15.2275C 32.60799 13.67864 31.873793 12.172173 30.55311 11.346645C 29.232428 10.521119 27.556572 10.521119 26.235889 11.346645C 24.915207 12.172173 24.181009 13.67864 24.3445 15.2275L 25.394499 25.75L 17.144501 25.75C 15.487646 25.75 14.1445 27.093145 14.1445 28.75L 14.1445 31C 14.1445 31.414213 14.480287 31.75 14.8945 31.75L 41.894501 31.75C 42.308716 31.75 42.644501 31.414213 42.644501 31L 42.644501 28.75C 42.644501 27.093145 41.301353 25.75 39.644501 25.75ZM 41.144501 36.699997L 41.144501 31.75L 15.6445 31.75L 15.6445 36.699997C 15.643984 39.321976 14.890635 41.888672 13.474 44.095001C 13.326034 44.325626 13.315616 44.618587 13.446826 44.859142C 13.578037 45.099693 13.829989 45.249546 14.104 45.25L 16.3465 45.25C 17.852879 45.252235 19.260462 44.500584 20.0965 43.247501C 21.433001 41.238998 23.144499 38.5 23.144499 38.5L 23.144499 44.5C 23.144499 44.914215 23.480286 45.25 23.894499 45.25L 40.394501 45.25C 40.808716 45.25 41.144501 44.914215 41.144501 44.5ZM 36.644501 45.25L 36.644501 39.25M 32.144501 45.25L 32.144501 40.75"></path></g></g></g><g id="g-root-tx_robotere_95960179uqyw-stroke" data-item-order="0" transform="translate(56, 290)"></g><g id="g-root-tx_intellig_13zvfkx7a4jd4-stroke" data-item-order="0" transform="translate(608, 278)"></g><g id="g-root-ic_1_13zvlwh79nqbk-stroke" data-item-order="0" transform="translate(368, 182)"><g id="ic_1_13zvlwh79nqbk-stroke" fill="none" stroke-linecap="round" stroke-linejoin="round" stroke-miterlimit="4" stroke="#1eabda" stroke-width="2" stroke-opacity="1"><g><path d="M 21.356501 41.008003C 20.477875 41.88636 19.053625 41.88636 18.175001 41.008003L 14.992001 37.824997C 14.113641 36.946377 14.113641 35.522125 14.992001 34.643501L 37.568501 12.0685C 39.334206 10.36312 42.140884 10.387506 43.87669 12.123311C 45.612495 13.859116 45.636883 16.665796 43.931499 18.431499ZM 37.521999 12.1135L 37.037498 11.629C 35.865997 10.457854 33.966999 10.457854 32.795498 11.629L 26.962 17.4625M 31.203999 18.431499L 37.568501 24.796001M 11.8105 38.885498L 17.1145 44.189499M 14.4625 41.537498L 10.75 45.25"></path></g></g></g><g id="g-root-tx_schaffti_144vbfl7a0cn7-stroke" data-item-order="0" transform="translate(135, 188)"></g><g id="g-root-tx_integrie_vbq7j579w54x-stroke" data-item-order="0" transform="translate(68, 320)"></g><g id="g-root-ic_robo_1czvl417jsxlb-stroke" data-item-order="0" transform="translate(197, 326)"><g id="ic_robo_1czvl417jsxlb-stroke" fill="none" stroke-linecap="round" stroke-linejoin="round" stroke-miterlimit="4" stroke="#e55753" stroke-width="2" stroke-opacity="1"><g><path d="M 12.015625 21.261715L 24.997074 21.261715M 12.015625 28.527399L 24.997074 28.527399M 12.015625 35.804649L 43.1656 35.804649M 12.015625 43.070351L 43.1656 43.070351M 33.606998 17.0425L 40.9855 17.0425C 40.9855 17.0425 43.9855 17.0425 43.9855 20.0425L 43.9855 24.449501C 43.9855 24.449501 43.9855 27.449501 40.9855 27.449501L 33.606998 27.449501C 33.606998 27.449501 30.607 27.449501 30.607 24.449501L 30.607 20.0425C 30.607 20.0425 30.607 17.0425 33.606998 17.0425M 10 10M 37.295952 12.937885L 37.295952 17.042965M 10 10M 34.990299 21.38221L 34.990299 23.113285M 10 10M 39.598602 21.38221L 39.598602 23.113285"></path></g></g></g><g id="g-root-tx_material_3dew179kwsi-stroke" data-item-order="0" transform="translate(543, 158)"></g><g id="g-root-tx_bietetpe_4g2gf57a5zb5-stroke" data-item-order="0" transform="translate(608, 320)"></g><g id="g-root-ic_2_mcyqox7juaz2-stroke" data-item-order="0" transform="translate(350, 337.9959716796875)"><g id="ic_2_mcyqox7juaz2-stroke" fill="none" stroke-linecap="round" stroke-linejoin="round" stroke-miterlimit="4" stroke="#484848" stroke-width="2" stroke-opacity="1"><g><path d="M 41.548 59.5L 14.548 59.5C 12.891146 59.5 11.548 58.156853 11.548 56.5L 11.548 14.5C 11.548 12.843145 12.891146 11.5 14.548 11.5L 74.548004 11.5C 76.204857 11.5 77.548004 12.843145 77.548004 14.5L 77.548004 53.5M 23.487999 23.5L 45.952 45.964001M 45.952 36.361L 45.952 45.964001L 36.348999 45.964001M 23.487999 33.103001L 23.487999 23.5L 33.091 23.5M 80.451996 80.5L 80.451996 72.496002C 80.448692 66.974396 75.971611 62.5 70.450005 62.500008L 65.451996 62.5L 65.451996 49C 65.452003 46.514721 63.437283 44.5 60.952003 44.5C 58.466721 44.5 56.452 46.514721 56.452 49L 56.452 70L 52.599998 66.757004C 51.274517 65.164764 48.909237 64.948517 47.317001 66.274002C 45.724762 67.59948 45.508514 69.964767 46.834 71.556999L 54.256001 80.5"></path></g></g></g><g id="g-root-ic_4_1ums0ip7jkgzq-stroke" data-item-order="0" transform="translate(539, 326)"><g id="ic_4_1ums0ip7jkgzq-stroke" fill="none" stroke-linecap="round" stroke-linejoin="round" stroke-miterlimit="4" stroke="#92bd39" stroke-width="2" stroke-opacity="1"><g><path d="M 25.375 26.7505L 31.393 26.7505L 31.243 31.75L 37.093002 26.7505L 43.243 26.7505C 43.77486 26.752495 44.285595 26.542509 44.662243 26.166988C 45.038887 25.79147 45.250404 25.281361 45.25 24.7495L 45.25 12.7495C 45.25 11.645206 44.354794 10.75 43.2505 10.75L 25.2505 10.75C 24.145622 10.749171 23.2495 11.644621 23.2495 12.7495L 23.2495 20.5M 31 22.75L 34.75 14.5L 38.5 22.75M 31.830999 20.921501L 37.668999 20.921501M 27.25 43.75C 27.25 44.578426 26.578428 45.25 25.75 45.25L 12.25 45.25C 11.421573 45.25 10.75 44.578426 10.75 43.75L 10.75 38.5C 10.75 33.943653 14.443651 30.250002 19 30.250002C 23.556349 30.250002 27.25 33.943653 27.25 38.5ZM 10.75 40.75L 27.25 40.75M 15.25 36.625C 15.25 36.832108 15.417893 37 15.625 37C 15.832107 37 16 36.832108 16 36.625C 16 36.417892 15.832107 36.25 15.625 36.25C 15.417893 36.25 15.25 36.417892 15.25 36.625M 22 36.625C 22 36.832108 22.167892 37 22.375 37C 22.582108 37 22.75 36.832108 22.75 36.625C 22.75 36.417892 22.582108 36.25 22.375 36.25C 22.167892 36.25 22 36.417892 22 36.625M 19 30.25L 19 27.25M 16.75 25C 16.75 26.242641 17.75736 27.25 19 27.25C 20.242641 27.25 21.25 26.242641 21.25 25C 21.25 23.75736 20.242641 22.75 19 22.75C 17.75736 22.75 16.75 23.75736 16.75 25"></path></g></g></g><g id="g-root-tx_sprachsy_24gpt79ry12-stroke" data-item-order="0" transform="translate(80, 428)"></g><g id="g-root-tx_kigesttz_1lsehep79yznm-stroke" data-item-order="0" transform="translate(123, 158)"></g><g id="g-root-tx_erstellt_1d1r6ox7a1slr-stroke" data-item-order="0" transform="translate(332, 116)"></g><g id="g-root-tx_lernanal_1cz9di979noqs-stroke" data-item-order="0" transform="translate(590, 428)"></g><g id="g-root-ic_1_18kok2p7jor28-stroke" data-item-order="0" transform="translate(217, 443)"><g id="ic_1_18kok2p7jor28-stroke" fill="none" stroke-linecap="round" stroke-linejoin="round" stroke-miterlimit="4" stroke="#de58a9" stroke-width="2" stroke-opacity="1"><g><path d="M 39.25 27.25L 16.75 27.25M 28 27.25L 28 20.5M 34 27.25C 34 28.75 30.3055 40.084 18.25 45.25M 22 27.25C 22 28.75 25.6945 40.084 37.75 45.25M 15.25 24.25C 15.25 19.279438 19.279438 15.25 24.25 15.25M 10.75 24.25C 10.75 16.794155 16.794155 10.75 24.25 10.75M 40.75 24.25C 40.75 19.279438 36.720566 15.25 31.75 15.25M 45.25 24.25C 45.25 16.794155 39.205841 10.75 31.75 10.75"></path></g></g></g><g id="g-root-tx_generier_1d3080x7a366d-stroke" data-item-order="0" transform="translate(458, 608)"></g><g id="g-root-tx_unterstt_1uqje0179tcef-stroke" data-item-order="0" transform="translate(80, 458)"></g><g id="g-root-tx_textgene_1d2dns17a0c26-stroke" data-item-order="0" transform="translate(326, 86)"></g><g id="g-root-tx_technolo_909a5d79yxot-stroke" data-item-order="0" transform="translate(182, 38)"></g><g id="g-root-tx_analysie_mfgq7579p5ot-stroke" data-item-order="0" transform="translate(590, 458)"></g><g id="g-root-ic_1_1czvhy97jucxy-stroke" data-item-order="0" transform="translate(308, 521)"><g id="ic_1_1czvhy97jucxy-stroke" fill="none" stroke-linecap="round" stroke-linejoin="round" stroke-miterlimit="4" stroke="#7f64ea" stroke-width="2" stroke-opacity="1"><g><path d="M 16.9375 20.5C 16.9375 20.810661 17.189341 21.0625 17.5 21.0625C 17.810661 21.0625 18.0625 20.810661 18.0625 20.5C 18.0625 20.189341 17.810661 19.9375 17.5 19.9375C 17.189341 19.9375 16.9375 20.189341 16.9375 20.5M 22.9375 20.5C 22.9375 20.810661 23.189341 21.0625 23.5 21.0625C 23.810659 21.0625 24.0625 20.810661 24.0625 20.5C 24.0625 20.189341 23.810659 19.9375 23.5 19.9375C 23.189341 19.9375 22.9375 20.189341 22.9375 20.5M 16.9375 25.75C 16.9375 26.060661 17.189341 26.3125 17.5 26.3125C 17.810661 26.3125 18.0625 26.060661 18.0625 25.75C 18.0625 25.439341 17.810661 25.1875 17.5 25.1875C 17.189341 25.1875 16.9375 25.439341 16.9375 25.75M 16.9375 31C 16.9375 31.310661 17.189341 31.5625 17.5 31.5625C 17.810661 31.5625 18.0625 31.310661 18.0625 31C 18.0625 30.689341 17.810661 30.4375 17.5 30.4375C 17.189341 30.4375 16.9375 30.689341 16.9375 31M 22.9375 25.75C 22.9375 26.060661 23.189341 26.3125 23.5 26.3125C 23.810659 26.3125 24.0625 26.060661 24.0625 25.75C 24.0625 25.439341 23.810659 25.1875 23.5 25.1875C 23.189341 25.1875 22.9375 25.439341 22.9375 25.75M 28.9375 20.5C 28.9375 20.810661 29.189341 21.0625 29.5 21.0625C 29.810661 21.0625 30.0625 20.810661 30.0625 20.5C 30.0625 20.189341 29.810661 19.9375 29.5 19.9375C 29.189341 19.9375 28.9375 20.189341 28.9375 20.5M 22.375 35.875L 13.375 35.875C 12.13236 35.875 11.125 34.867641 11.125 33.625L 11.125 33.625L 11.125 15.625C 11.125 14.38236 12.13236 13.375 13.375 13.375L 33.625 13.375C 34.867641 13.375 35.875 14.38236 35.875 15.625L 35.875 22.375M 17.875 15.625L 17.875 11.125M 29.125 15.625L 29.125 11.125M 26.875 35.875C 26.875002 40.845566 30.904438 44.875 35.875 44.875C 40.845566 44.875 44.875 40.845566 44.875 35.875C 44.875 30.904438 40.845566 26.875002 35.875 26.875002C 30.904438 26.875002 26.875002 30.904438 26.875002 35.875M 39.853001 35.875L 35.875 35.875L 35.875 31.8985"></path></g></g></g><g id="g-root-ic_edit_90veld7jyih8-stroke" data-item-order="0" transform="translate(428, 519)"><g id="ic_edit_90veld7jyih8-stroke" fill="none" stroke-linecap="round" stroke-linejoin="round" stroke-miterlimit="4" stroke="#e0cb15" stroke-width="2" stroke-opacity="1"><g><path d="M 37.75 30.25L 37.75 42.25C 37.75 43.906857 36.406857 45.25 34.75 45.25L 13.75 45.25C 12.093145 45.25 10.75 43.906857 10.75 42.25L 10.75 13.75C 10.75 12.093145 12.093145 10.75 13.75 10.75L 34.75 10.75C 36.406857 10.75 37.75 12.093145 37.75 13.75L 37.75 15.25M 34.75 33.25L 34.75 40.75C 34.75 41.578426 34.078426 42.25 33.25 42.25L 15.25 42.25C 14.421573 42.25 13.75 41.578426 13.75 40.75L 13.75 15.25C 13.75 14.421573 14.421573 13.75 15.25 13.75L 18.25 13.75M 30.25 13.75L 33.25 13.75C 34.078426 13.75 34.75 14.421573 34.75 15.25L 34.75 18.25M 26.028999 37.348L 22.8475 34.1665L 41.408501 15.604C 42.287403 14.724704 43.712753 14.724545 44.591854 15.603644C 45.470955 16.482744 45.470795 17.908096 44.591499 18.786999ZM 39.818501 17.195499L 43 20.377001M 22.8475 34.1665L 20.945499 39.25L 26.028999 37.348L 22.8475 34.1665ZM 16.75 27.25L 17.299 28.348C 17.403198 28.557259 17.601786 28.703541 17.832531 28.741009C 18.063274 28.778475 18.297945 28.702539 18.462999 28.536999L 21.25 25.75M 24.25 27.25L 25.75 27.25M 18.25 10.75L 30.25 10.75L 30.25 10.75L 30.25 13.75C 30.25 14.578427 29.578428 15.25 28.75 15.25L 19.75 15.25C 18.921574 15.25 18.25 14.578427 18.25 13.75L 18.25 10.75L 18.25 10.75ZM 16.75 21.25L 17.299 22.348C 17.403198 22.557259 17.601786 22.703541 17.832531 22.741009C 18.063274 22.778475 18.297945 22.702539 18.462999 22.536999L 21.25 19.75M 24.25 21.25L 30.25 21.25"></path></g></g></g><g id="g-root-tx_unterric_8ydy1t7a603y-stroke" data-item-order="0" transform="translate(146, 578)"></g><g id="g-root-tx_prfungsu_mgpodd7a1ssk-stroke" data-item-order="0" transform="translate(458, 578)"></g><g id="g-root-tx_verwalte_4nkbs179kwlj-stroke" data-item-order="0" transform="translate(206, 608)"></g><g id="g-root-ic_pie_1448bdt7k2pzc-stroke" data-item-order="0" transform="translate(519, 443)"><g id="ic_pie_1448bdt7k2pzc-stroke" fill="none" stroke-linecap="round" stroke-linejoin="round" stroke-miterlimit="4" stroke="#de8431" stroke-width="2" stroke-opacity="1"><g><path d="M 11.125 28C 11.125 37.319805 18.680195 44.875 28 44.875C 37.319805 44.875 44.875 37.319805 44.875 28C 44.875 18.680195 37.319805 11.125 28 11.125C 18.680195 11.125 11.125 18.680195 11.125 28M 22.75 28C 22.750002 30.899494 25.100506 33.25 28.000002 33.25C 30.899494 33.25 33.25 30.899494 33.25 28.000002C 33.25 25.100506 30.899494 22.750002 28.000002 22.750002C 25.100506 22.750002 22.750002 25.100506 22.750002 28.000002M 28 11.125L 28 22.75M 10 10M 44.875 28L 33.25 28M 10 10M 16.082035 39.91795L 24.288084 31.711899"></path></g></g></g></g></g></svg>